<?xml version="1.0" standalone="no"?>
<!DOCTYPE svg PUBLIC "-//W3C//DTD SVG 20010904//EN"
 "http://www.w3.org/TR/2001/REC-SVG-20010904/DTD/svg10.dtd">
<svg version="1.0" xmlns="http://www.w3.org/2000/svg"
 width="160.000000pt" height="160.000000pt" viewBox="0 0 160.000000 160.000000"
 preserveAspectRatio="xMidYMid meet">
<metadata>
Created by potrace 1.14, written by Peter Selinger 2001-2017
</metadata>
<g transform="translate(0.000000,160.000000) scale(0.100000,-0.100000)"
fill="#000000" stroke="none">
<path d="M330 1520 c-149 -41 -264 -181 -277 -336 -18 -217 94 -448 357 -738
95 -105 172 -186 281 -300 l106 -109 52 54 c29 30 92 94 140 144 48 50 125
133 171 185 47 52 87 97 90 100 19 19 94 116 133 172 131 188 185 384 150 541
-31 141 -126 243 -262 283 -146 42 -300 -20 -423 -170 l-52 -63 -34 46 c-35
45 -48 59 -110 113 -82 71 -222 105 -322 78z"/>
</g>
</svg>
